<svg width="200" height="350" viewBox="-100 -100 200 350" stroke-width="2" stroke="black">
  
  <g>
    <g>
      <rect x="-28" y="-67" width="5" height="152" fill="#36454F"/>
      <rect x="23" y="-67" width="5" height="152" fill="#36454F"/>
    </g>
    
    <polygon points="-5,180 -30,190 -30,200 30,200 30,190 5,180"/>
    <polygon points="-10,196 -10,222 -13,222 -13,166 -10,166 -10,192 0,192 0,196" fill="black"/>
    <polygon points="-25,0 -10,90 -3,200 3,200 10,90 25,0"/>
    <ellipse cx="0" cy="0" rx="30" ry="70"/>

  </g>

  <g fill="grey">
    <path d="M 0,0 A 63,63 0 0,0 -98,0 Z"/>
    <path d="M 0,0 A 63,63 0 0,0 0,-98 Z"/>
    <path d="M 0,0 A 63,63 0 0,0 98,0 Z"/>
    <path d="M 0,0 A 63,63 0 0,0 0,98 Z"/>
    
    <animateTransform 
      attributeName="transform" 
      type="rotate" 
      from="0 0 0" 
      to="360 0 0" 
      dur="2s" 
      repeatCount="indefinite"
    />

  </g>

  <circle cx="0" cy="0" r="10" fill="black"/>
</svg>